<svg width="208" height="56" viewBox="0 0 208 56" fill="none" xmlns="http://www.w3.org/2000/svg">
<rect width="208" height="56" rx="16" fill="#FBB36A"/>
<path d="M70.206 13.04H75.466C76.386 13.04 77.226 13.1867 77.986 13.48C78.746 13.7733 79.3927 14.2133 79.926 14.8C80.4593 15.3733 80.8727 16.1 81.166 16.98C81.4593 17.8467 81.606 18.86 81.606 20.02C81.606 21.18 81.4593 22.2 81.166 23.08C80.8727 23.9467 80.4593 24.6733 79.926 25.26C79.3927 25.8333 78.746 26.2667 77.986 26.56C77.226 26.8533 76.386 27 75.466 27H70.206V13.04ZM75.466 24.3C76.3727 24.3 77.086 24.0467 77.606 23.54C78.126 23.0333 78.386 22.22 78.386 21.1V18.94C78.386 17.82 78.126 17.0067 77.606 16.5C77.086 15.9933 76.3727 15.74 75.466 15.74H73.246V24.3H75.466ZM88.2513 27.24C87.478 27.24 86.7847 27.1133 86.1713 26.86C85.5713 26.6067 85.058 26.24 84.6313 25.76C84.218 25.28 83.898 24.7 83.6713 24.02C83.4447 23.34 83.3313 22.58 83.3313 21.74C83.3313 20.9 83.4447 20.14 83.6713 19.46C83.898 18.78 84.218 18.2067 84.6313 17.74C85.058 17.26 85.5713 16.8933 86.1713 16.64C86.7847 16.3867 87.478 16.26 88.2513 16.26C89.0247 16.26 89.7113 16.3867 90.3113 16.64C90.9247 16.8933 91.438 17.26 91.8513 17.74C92.278 18.2067 92.6047 18.78 92.8313 19.46C93.058 20.14 93.1713 20.9 93.1713 21.74C93.1713 22.58 93.058 23.34 92.8313 24.02C92.6047 24.7 92.278 25.28 91.8513 25.76C91.438 26.24 90.9247 26.6067 90.3113 26.86C89.7113 27.1133 89.0247 27.24 88.2513 27.24ZM88.2513 24.9C88.838 24.9 89.2913 24.72 89.6113 24.36C89.9313 24 90.0913 23.4867 90.0913 22.82V20.68C90.0913 20.0133 89.9313 19.5 89.6113 19.14C89.2913 18.78 88.838 18.6 88.2513 18.6C87.6647 18.6 87.2113 18.78 86.8913 19.14C86.5713 19.5 86.4113 20.0133 86.4113 20.68V22.82C86.4113 23.4867 86.5713 24 86.8913 24.36C87.2113 24.72 87.6647 24.9 88.2513 24.9ZM94.0851 16.5H96.9451L97.9651 20.74L98.6851 23.94H98.7651L99.6051 20.74L100.805 16.5H103.505L104.725 20.74L105.585 23.94H105.665L106.385 20.74L107.405 16.5H110.145L107.245 27H104.145L102.865 22.56L102.125 19.84H102.065L101.345 22.56L100.065 27H97.0251L94.0851 16.5ZM111.901 27V16.5H114.861V18.28H114.981C115.168 17.7333 115.495 17.26 115.961 16.86C116.428 16.46 117.075 16.26 117.901 16.26C118.981 16.26 119.795 16.62 120.341 17.34C120.901 18.06 121.181 19.0867 121.181 20.42V27H118.221V20.66C118.221 19.98 118.115 19.48 117.901 19.16C117.688 18.8267 117.308 18.66 116.761 18.66C116.521 18.66 116.288 18.6933 116.061 18.76C115.835 18.8133 115.628 18.9067 115.441 19.04C115.268 19.1733 115.128 19.34 115.021 19.54C114.915 19.7267 114.861 19.9467 114.861 20.2V27H111.901ZM126.756 27C125.742 27 124.996 26.7533 124.516 26.26C124.049 25.7667 123.816 25.0533 123.816 24.12V12.2H126.776V24.7H128.096V27H126.756ZM134.13 27.24C133.357 27.24 132.664 27.1133 132.05 26.86C131.45 26.6067 130.937 26.24 130.51 25.76C130.097 25.28 129.777 24.7 129.55 24.02C129.324 23.34 129.21 22.58 129.21 21.74C129.21 20.9 129.324 20.14 129.55 19.46C129.777 18.78 130.097 18.2067 130.51 17.74C130.937 17.26 131.45 16.8933 132.05 16.64C132.664 16.3867 133.357 16.26 134.13 16.26C134.904 16.26 135.59 16.3867 136.19 16.64C136.804 16.8933 137.317 17.26 137.73 17.74C138.157 18.2067 138.484 18.78 138.71 19.46C138.937 20.14 139.05 20.9 139.05 21.74C139.05 22.58 138.937 23.34 138.71 24.02C138.484 24.7 138.157 25.28 137.73 25.76C137.317 26.24 136.804 26.6067 136.19 26.86C135.59 27.1133 134.904 27.24 134.13 27.24ZM134.13 24.9C134.717 24.9 135.17 24.72 135.49 24.36C135.81 24 135.97 23.4867 135.97 22.82V20.68C135.97 20.0133 135.81 19.5 135.49 19.14C135.17 18.78 134.717 18.6 134.13 18.6C133.544 18.6 133.09 18.78 132.77 19.14C132.45 19.5 132.29 20.0133 132.29 20.68V22.82C132.29 23.4867 132.45 24 132.77 24.36C133.09 24.72 133.544 24.9 134.13 24.9ZM148.919 27C148.386 27 147.939 26.8333 147.579 26.5C147.233 26.1667 147.013 25.72 146.919 25.16H146.799C146.639 25.84 146.286 26.36 145.739 26.72C145.193 27.0667 144.519 27.24 143.719 27.24C142.666 27.24 141.859 26.96 141.299 26.4C140.739 25.84 140.459 25.1 140.459 24.18C140.459 23.0733 140.859 22.2533 141.659 21.72C142.473 21.1733 143.573 20.9 144.959 20.9H146.619V20.24C146.619 19.7333 146.486 19.3333 146.219 19.04C145.953 18.7333 145.506 18.58 144.879 18.58C144.293 18.58 143.826 18.7067 143.479 18.96C143.133 19.2133 142.846 19.5 142.619 19.82L140.859 18.26C141.286 17.6333 141.819 17.1467 142.459 16.8C143.113 16.44 143.993 16.26 145.099 16.26C146.593 16.26 147.713 16.5867 148.459 17.24C149.206 17.8933 149.579 18.8467 149.579 20.1V24.7H150.559V27H148.919ZM144.819 25.18C145.313 25.18 145.733 25.0733 146.079 24.86C146.439 24.6467 146.619 24.3 146.619 23.82V22.58H145.179C144.019 22.58 143.439 22.9733 143.439 23.76V24.06C143.439 24.4467 143.559 24.7333 143.799 24.92C144.039 25.0933 144.379 25.18 144.819 25.18ZM158.986 25.24H158.886C158.806 25.52 158.679 25.7867 158.506 26.04C158.333 26.28 158.119 26.4933 157.866 26.68C157.626 26.8533 157.346 26.9867 157.026 27.08C156.719 27.1867 156.399 27.24 156.066 27.24C154.733 27.24 153.726 26.7733 153.046 25.84C152.366 24.8933 152.026 23.5267 152.026 21.74C152.026 19.9533 152.366 18.5933 153.046 17.66C153.726 16.7267 154.733 16.26 156.066 16.26C156.746 16.26 157.346 16.4467 157.866 16.82C158.399 17.1933 158.739 17.6733 158.886 18.26H158.986V12.2H161.946V27H158.986V25.24ZM157.046 24.84C157.606 24.84 158.066 24.7067 158.426 24.44C158.799 24.16 158.986 23.78 158.986 23.3V20.2C158.986 19.72 158.799 19.3467 158.426 19.08C158.066 18.8 157.606 18.66 157.046 18.66C156.486 18.66 156.019 18.86 155.646 19.26C155.286 19.6467 155.106 20.1733 155.106 20.84V22.66C155.106 23.3267 155.286 23.86 155.646 24.26C156.019 24.6467 156.486 24.84 157.046 24.84Z" fill="#472402"/>
<path opacity="0.8" d="M70.924 45V36.624H76.48V38.244H72.748V39.96H75.928V41.568H72.748V45H70.924ZM77.4843 45V38.7H79.2603V40.068H79.3203C79.3523 39.892 79.4083 39.724 79.4883 39.564C79.5683 39.396 79.6723 39.248 79.8003 39.12C79.9363 38.992 80.0963 38.892 80.2803 38.82C80.4643 38.74 80.6803 38.7 80.9283 38.7H81.2403V40.356H80.7963C80.2763 40.356 79.8883 40.424 79.6323 40.56C79.3843 40.696 79.2603 40.948 79.2603 41.316V45H77.4843ZM84.8332 45.144C84.3692 45.144 83.9532 45.068 83.5852 44.916C83.2252 44.764 82.9172 44.544 82.6612 44.256C82.4132 43.968 82.2212 43.62 82.0852 43.212C81.9492 42.804 81.8812 42.348 81.8812 41.844C81.8812 41.34 81.9492 40.884 82.0852 40.476C82.2212 40.068 82.4132 39.724 82.6612 39.444C82.9172 39.156 83.2252 38.936 83.5852 38.784C83.9532 38.632 84.3692 38.556 84.8332 38.556C85.2972 38.556 85.7092 38.632 86.0692 38.784C86.4372 38.936 86.7452 39.156 86.9932 39.444C87.2492 39.724 87.4452 40.068 87.5812 40.476C87.7172 40.884 87.7852 41.34 87.7852 41.844C87.7852 42.348 87.7172 42.804 87.5812 43.212C87.4452 43.62 87.2492 43.968 86.9932 44.256C86.7452 44.544 86.4372 44.764 86.0692 44.916C85.7092 45.068 85.2972 45.144 84.8332 45.144ZM84.8332 43.74C85.1852 43.74 85.4572 43.632 85.6492 43.416C85.8412 43.2 85.9372 42.892 85.9372 42.492V41.208C85.9372 40.808 85.8412 40.5 85.6492 40.284C85.4572 40.068 85.1852 39.96 84.8332 39.96C84.4812 39.96 84.2092 40.068 84.0172 40.284C83.8252 40.5 83.7292 40.808 83.7292 41.208V42.492C83.7292 42.892 83.8252 43.2 84.0172 43.416C84.2092 43.632 84.4812 43.74 84.8332 43.74ZM89.0507 45V38.7H90.8267V39.768H90.8987C91.0107 39.432 91.2027 39.148 91.4747 38.916C91.7467 38.676 92.1187 38.556 92.5907 38.556C93.0227 38.556 93.3907 38.664 93.6947 38.88C93.9987 39.096 94.2187 39.412 94.3547 39.828H94.3907C94.4467 39.652 94.5307 39.488 94.6427 39.336C94.7627 39.176 94.9067 39.04 95.0747 38.928C95.2427 38.816 95.4307 38.728 95.6387 38.664C95.8467 38.592 96.0707 38.556 96.3107 38.556C96.9187 38.556 97.3827 38.772 97.7027 39.204C98.0307 39.636 98.1947 40.252 98.1947 41.052V45H96.4187V41.196C96.4187 40.396 96.1307 39.996 95.5547 39.996C95.2907 39.996 95.0507 40.072 94.8347 40.224C94.6187 40.376 94.5107 40.608 94.5107 40.92V45H92.7347V41.196C92.7347 40.396 92.4467 39.996 91.8707 39.996C91.7427 39.996 91.6147 40.016 91.4867 40.056C91.3667 40.088 91.2547 40.144 91.1507 40.224C91.0547 40.304 90.9747 40.404 90.9107 40.524C90.8547 40.636 90.8267 40.768 90.8267 40.92V45H89.0507ZM102.009 38.7H103.725L104.337 41.244L104.769 43.164H104.817L105.321 41.244L106.041 38.7H107.661L108.393 41.244L108.909 43.164H108.957L109.389 41.244L110.001 38.7H111.645L109.905 45H108.045L107.277 42.336L106.833 40.704H106.797L106.365 42.336L105.597 45H103.773L102.009 38.7ZM115.21 45.144C114.73 45.144 114.302 45.068 113.926 44.916C113.55 44.756 113.23 44.536 112.966 44.256C112.71 43.968 112.514 43.62 112.378 43.212C112.25 42.804 112.186 42.348 112.186 41.844C112.186 41.348 112.25 40.9 112.378 40.5C112.506 40.092 112.694 39.744 112.942 39.456C113.198 39.168 113.51 38.948 113.878 38.796C114.246 38.636 114.666 38.556 115.138 38.556C115.658 38.556 116.102 38.644 116.47 38.82C116.846 38.996 117.15 39.232 117.382 39.528C117.622 39.824 117.794 40.168 117.898 40.56C118.01 40.944 118.066 41.348 118.066 41.772V42.3H114.022V42.396C114.022 42.812 114.134 43.144 114.358 43.392C114.582 43.632 114.934 43.752 115.414 43.752C115.782 43.752 116.082 43.68 116.314 43.536C116.546 43.384 116.762 43.204 116.962 42.996L117.85 44.1C117.57 44.428 117.202 44.684 116.746 44.868C116.298 45.052 115.786 45.144 115.21 45.144ZM115.174 39.864C114.814 39.864 114.53 39.984 114.322 40.224C114.122 40.456 114.022 40.768 114.022 41.16V41.256H116.23V41.148C116.23 40.764 116.142 40.456 115.966 40.224C115.798 39.984 115.534 39.864 115.174 39.864ZM119.32 36.12H121.096V39.756H121.156C121.244 39.404 121.444 39.116 121.756 38.892C122.076 38.668 122.44 38.556 122.848 38.556C123.648 38.556 124.252 38.836 124.66 39.396C125.068 39.956 125.272 40.772 125.272 41.844C125.272 42.916 125.068 43.736 124.66 44.304C124.252 44.864 123.648 45.144 122.848 45.144C122.64 45.144 122.444 45.112 122.26 45.048C122.076 44.992 121.908 44.912 121.756 44.808C121.612 44.696 121.488 44.568 121.384 44.424C121.28 44.272 121.204 44.112 121.156 43.944H121.096V45H119.32V36.12ZM122.26 43.704C122.596 43.704 122.872 43.588 123.088 43.356C123.312 43.116 123.424 42.796 123.424 42.396V41.304C123.424 40.904 123.312 40.588 123.088 40.356C122.872 40.116 122.596 39.996 122.26 39.996C121.924 39.996 121.644 40.08 121.42 40.248C121.204 40.408 121.096 40.632 121.096 40.92V42.78C121.096 43.068 121.204 43.296 121.42 43.464C121.644 43.624 121.924 43.704 122.26 43.704ZM128.757 45.144C128.149 45.144 127.637 45.048 127.221 44.856C126.805 44.656 126.433 44.376 126.105 44.016L127.149 42.96C127.373 43.208 127.621 43.404 127.893 43.548C128.165 43.692 128.473 43.764 128.817 43.764C129.169 43.764 129.413 43.712 129.549 43.608C129.685 43.496 129.753 43.348 129.753 43.164C129.753 42.868 129.541 42.692 129.117 42.636L128.433 42.552C127.017 42.376 126.309 41.728 126.309 40.608C126.309 40.304 126.365 40.028 126.477 39.78C126.597 39.524 126.761 39.308 126.969 39.132C127.185 38.948 127.441 38.808 127.737 38.712C128.041 38.608 128.381 38.556 128.757 38.556C129.085 38.556 129.373 38.58 129.621 38.628C129.877 38.668 130.101 38.732 130.293 38.82C130.493 38.9 130.673 39.004 130.833 39.132C131.001 39.252 131.165 39.388 131.325 39.54L130.305 40.584C130.105 40.384 129.877 40.228 129.621 40.116C129.373 39.996 129.117 39.936 128.853 39.936C128.549 39.936 128.333 39.984 128.205 40.08C128.077 40.176 128.013 40.304 128.013 40.464C128.013 40.632 128.057 40.764 128.145 40.86C128.241 40.948 128.417 41.012 128.673 41.052L129.381 41.148C130.765 41.332 131.457 41.964 131.457 43.044C131.457 43.348 131.393 43.628 131.265 43.884C131.137 44.14 130.953 44.364 130.713 44.556C130.481 44.74 130.197 44.884 129.861 44.988C129.533 45.092 129.165 45.144 128.757 45.144ZM133.556 38.028C133.196 38.028 132.932 37.948 132.764 37.788C132.604 37.62 132.524 37.408 132.524 37.152V36.888C132.524 36.632 132.604 36.424 132.764 36.264C132.932 36.096 133.196 36.012 133.556 36.012C133.916 36.012 134.176 36.096 134.336 36.264C134.504 36.424 134.588 36.632 134.588 36.888V37.152C134.588 37.408 134.504 37.62 134.336 37.788C134.176 37.948 133.916 38.028 133.556 38.028ZM132.668 38.7H134.444V45H132.668V38.7ZM138.309 45C137.693 45 137.225 44.844 136.905 44.532C136.593 44.22 136.437 43.764 136.437 43.164V40.08H135.549V38.7H135.993C136.233 38.7 136.397 38.644 136.485 38.532C136.573 38.412 136.617 38.244 136.617 38.028V36.996H138.213V38.7H139.461V40.08H138.213V43.62H139.365V45H138.309ZM143.276 45.144C142.796 45.144 142.368 45.068 141.992 44.916C141.616 44.756 141.296 44.536 141.032 44.256C140.776 43.968 140.58 43.62 140.444 43.212C140.316 42.804 140.252 42.348 140.252 41.844C140.252 41.348 140.316 40.9 140.444 40.5C140.572 40.092 140.76 39.744 141.008 39.456C141.264 39.168 141.576 38.948 141.944 38.796C142.312 38.636 142.732 38.556 143.204 38.556C143.724 38.556 144.168 38.644 144.536 38.82C144.912 38.996 145.216 39.232 145.448 39.528C145.688 39.824 145.86 40.168 145.964 40.56C146.076 40.944 146.132 41.348 146.132 41.772V42.3H142.088V42.396C142.088 42.812 142.2 43.144 142.424 43.392C142.648 43.632 143 43.752 143.48 43.752C143.848 43.752 144.148 43.68 144.38 43.536C144.612 43.384 144.828 43.204 145.028 42.996L145.916 44.1C145.636 44.428 145.268 44.684 144.812 44.868C144.364 45.052 143.852 45.144 143.276 45.144ZM143.24 39.864C142.88 39.864 142.596 39.984 142.388 40.224C142.188 40.456 142.088 40.768 142.088 41.16V41.256H144.296V41.148C144.296 40.764 144.208 40.456 144.032 40.224C143.864 39.984 143.6 39.864 143.24 39.864Z" fill="#472402"/>
<path d="M37.4987 29.5417V37.8751L33.332 33.7084" stroke="#472402" stroke-width="3.33" stroke-linecap="round" stroke-linejoin="round"/>
<path d="M37.5 37.8749L41.6667 33.7083" stroke="#472402" stroke-width="3.33" stroke-linecap="round" stroke-linejoin="round"/>
<path d="M29.5766 31.9052C28.7259 31.161 28.0598 30.2292 27.631 29.1833C27.2022 28.1374 27.0224 27.0062 27.1058 25.8789C27.1893 24.7516 27.5336 23.6592 28.1118 22.6879C28.6899 21.7165 29.4859 20.8929 30.437 20.282C31.388 19.6712 32.4681 19.2898 33.5919 19.1679C34.7157 19.0461 35.8524 19.1873 36.9122 19.5802C37.9721 19.9731 38.9261 20.6071 39.6989 21.432C40.4717 22.2569 41.0422 23.2502 41.3652 24.3334H43.2298C44.2423 24.3332 45.2277 24.661 46.0385 25.2676C46.8492 25.8742 47.4418 26.727 47.7274 27.6985C48.0131 28.6699 47.9765 29.7077 47.6232 30.6566C47.2698 31.6055 46.6187 32.4145 45.7673 32.9625" stroke="#472402" stroke-width="3.33" stroke-linecap="round" stroke-linejoin="round"/>
</svg>
