<svg width="208" height="56" viewBox="0 0 208 56" fill="none" xmlns="http://www.w3.org/2000/svg">
<rect width="208" height="56" rx="16" fill="#FBB36A"/>
<path d="M76.012 27.24C75.0654 27.24 74.212 27.0933 73.452 26.8C72.692 26.4933 72.0454 26.0467 71.512 25.46C70.9787 24.86 70.5654 24.12 70.272 23.24C69.9787 22.3467 69.832 21.3067 69.832 20.12C69.832 18.9467 69.9787 17.9067 70.272 17C70.5654 16.08 70.9787 15.3133 71.512 14.7C72.0454 14.0733 72.692 13.6 73.452 13.28C74.212 12.96 75.0654 12.8 76.012 12.8C77.3054 12.8 78.372 13.0667 79.212 13.6C80.052 14.12 80.7254 14.9467 81.232 16.08L78.612 17.44C78.4254 16.8533 78.132 16.3867 77.732 16.04C77.3454 15.68 76.772 15.5 76.012 15.5C75.1187 15.5 74.3987 15.7933 73.852 16.38C73.3187 16.9533 73.052 17.7933 73.052 18.9V21.14C73.052 22.2467 73.3187 23.0933 73.852 23.68C74.3987 24.2533 75.1187 24.54 76.012 24.54C76.7587 24.54 77.352 24.34 77.792 23.94C78.2454 23.5267 78.5787 23.0333 78.792 22.46L81.272 23.9C80.752 24.9667 80.0654 25.7933 79.212 26.38C78.372 26.9533 77.3054 27.24 76.012 27.24ZM83.2394 16.5H86.1994V20.52H87.7194L89.0994 17.96C89.3794 17.44 89.6927 17.0667 90.0394 16.84C90.3994 16.6133 90.8594 16.5 91.4194 16.5H92.6394V18.8H91.5794L90.6794 20.48C90.4927 20.8267 90.306 21.0733 90.1194 21.22C89.946 21.3667 89.7394 21.4733 89.4994 21.54V21.64C89.726 21.6933 89.9327 21.7867 90.1194 21.92C90.3194 22.0533 90.4994 22.2667 90.6594 22.56L91.8394 24.7H92.9194V27H91.5394C90.9794 27 90.526 26.8867 90.1794 26.66C89.8327 26.4333 89.506 26.0467 89.1994 25.5L87.7194 22.82H86.1994V27H83.2394V16.5ZM102.62 27C102.087 27 101.64 26.8333 101.28 26.5C100.934 26.1667 100.714 25.72 100.62 25.16H100.5C100.34 25.84 99.9871 26.36 99.4405 26.72C98.8938 27.0667 98.2205 27.24 97.4205 27.24C96.3671 27.24 95.5605 26.96 95.0005 26.4C94.4405 25.84 94.1605 25.1 94.1605 24.18C94.1605 23.0733 94.5605 22.2533 95.3605 21.72C96.1738 21.1733 97.2738 20.9 98.6605 20.9H100.32V20.24C100.32 19.7333 100.187 19.3333 99.9205 19.04C99.6538 18.7333 99.2071 18.58 98.5805 18.58C97.9938 18.58 97.5271 18.7067 97.1805 18.96C96.8338 19.2133 96.5471 19.5 96.3205 19.82L94.5605 18.26C94.9871 17.6333 95.5205 17.1467 96.1605 16.8C96.8138 16.44 97.6938 16.26 98.8005 16.26C100.294 16.26 101.414 16.5867 102.16 17.24C102.907 17.8933 103.28 18.8467 103.28 20.1V24.7H104.26V27H102.62ZM98.5205 25.18C99.0138 25.18 99.4338 25.0733 99.7805 24.86C100.14 24.6467 100.32 24.3 100.32 23.82V22.58H98.8805C97.7205 22.58 97.1405 22.9733 97.1405 23.76V24.06C97.1405 24.4467 97.2605 24.7333 97.5005 24.92C97.7405 25.0933 98.0805 25.18 98.5205 25.18ZM111.736 22.54H111.636C111.396 22.9667 111.049 23.3067 110.596 23.56C110.156 23.8 109.596 23.92 108.916 23.92C107.729 23.92 106.862 23.6133 106.316 23C105.782 22.3867 105.516 21.4467 105.516 20.18V16.5H108.476V20.04C108.476 20.56 108.596 20.94 108.836 21.18C109.089 21.4067 109.496 21.52 110.056 21.52C110.616 21.52 111.036 21.42 111.316 21.22C111.596 21.02 111.736 20.7667 111.736 20.46V16.5H114.696V27H111.736V22.54ZM125.218 27C124.685 27 124.238 26.8333 123.878 26.5C123.531 26.1667 123.311 25.72 123.218 25.16H123.098C122.938 25.84 122.585 26.36 122.038 26.72C121.491 27.0667 120.818 27.24 120.018 27.24C118.965 27.24 118.158 26.96 117.598 26.4C117.038 25.84 116.758 25.1 116.758 24.18C116.758 23.0733 117.158 22.2533 117.958 21.72C118.771 21.1733 119.871 20.9 121.258 20.9H122.918V20.24C122.918 19.7333 122.785 19.3333 122.518 19.04C122.251 18.7333 121.805 18.58 121.178 18.58C120.591 18.58 120.125 18.7067 119.778 18.96C119.431 19.2133 119.145 19.5 118.918 19.82L117.158 18.26C117.585 17.6333 118.118 17.1467 118.758 16.8C119.411 16.44 120.291 16.26 121.398 16.26C122.891 16.26 124.011 16.5867 124.758 17.24C125.505 17.8933 125.878 18.8467 125.878 20.1V24.7H126.858V27H125.218ZM121.118 25.18C121.611 25.18 122.031 25.0733 122.378 24.86C122.738 24.6467 122.918 24.3 122.918 23.82V22.58H121.478C120.318 22.58 119.738 22.9733 119.738 23.76V24.06C119.738 24.4467 119.858 24.7333 120.098 24.92C120.338 25.0933 120.678 25.18 121.118 25.18ZM130.553 18.8H127.513V16.5H136.553V18.8H133.513V27H130.553V18.8ZM138.337 16.5H141.297V19.62H144.057C144.564 19.62 145.037 19.7 145.477 19.86C145.917 20.02 146.297 20.26 146.617 20.58C146.95 20.8867 147.21 21.2667 147.397 21.72C147.584 22.1733 147.677 22.7 147.677 23.3C147.677 23.9 147.584 24.4333 147.397 24.9C147.21 25.3533 146.95 25.74 146.617 26.06C146.297 26.3667 145.917 26.6 145.477 26.76C145.037 26.92 144.564 27 144.057 27H138.337V16.5ZM143.417 24.9C143.804 24.9 144.11 24.8 144.337 24.6C144.577 24.3867 144.697 24.0867 144.697 23.7V22.92C144.697 22.5333 144.577 22.24 144.337 22.04C144.11 21.8267 143.804 21.72 143.417 21.72H141.297V24.9H143.417Z" fill="#472402"/>
<path opacity="0.8" d="M74.308 45.144C73.74 45.144 73.228 45.056 72.772 44.88C72.316 44.696 71.928 44.428 71.608 44.076C71.288 43.716 71.04 43.272 70.864 42.744C70.688 42.208 70.6 41.584 70.6 40.872C70.6 40.168 70.688 39.544 70.864 39C71.04 38.448 71.288 37.988 71.608 37.62C71.928 37.244 72.316 36.96 72.772 36.768C73.228 36.576 73.74 36.48 74.308 36.48C75.084 36.48 75.724 36.64 76.228 36.96C76.732 37.272 77.136 37.768 77.44 38.448L75.868 39.264C75.756 38.912 75.58 38.632 75.34 38.424C75.108 38.208 74.764 38.1 74.308 38.1C73.772 38.1 73.34 38.276 73.012 38.628C72.692 38.972 72.532 39.476 72.532 40.14V41.484C72.532 42.148 72.692 42.656 73.012 43.008C73.34 43.352 73.772 43.524 74.308 43.524C74.756 43.524 75.112 43.404 75.376 43.164C75.648 42.916 75.848 42.62 75.976 42.276L77.464 43.14C77.152 43.78 76.74 44.276 76.228 44.628C75.724 44.972 75.084 45.144 74.308 45.144ZM84.0243 45.144C83.5523 45.144 83.1323 45.068 82.7643 44.916C82.3963 44.756 82.0883 44.536 81.8403 44.256C81.5923 43.968 81.4043 43.62 81.2763 43.212C81.1483 42.804 81.0843 42.348 81.0843 41.844C81.0843 41.34 81.1483 40.888 81.2763 40.488C81.4043 40.08 81.5923 39.732 81.8403 39.444C82.0883 39.156 82.3963 38.936 82.7643 38.784C83.1323 38.632 83.5523 38.556 84.0243 38.556C84.6643 38.556 85.1963 38.7 85.6203 38.988C86.0523 39.276 86.3603 39.68 86.5443 40.2L85.1043 40.824C85.0483 40.584 84.9323 40.38 84.7563 40.212C84.5803 40.044 84.3363 39.96 84.0243 39.96C83.6643 39.96 83.3923 40.08 83.2083 40.32C83.0243 40.552 82.9323 40.868 82.9323 41.268V42.444C82.9323 42.844 83.0243 43.16 83.2083 43.392C83.3923 43.624 83.6643 43.74 84.0243 43.74C84.3443 43.74 84.5963 43.656 84.7803 43.488C84.9723 43.312 85.1123 43.084 85.2003 42.804L86.5803 43.404C86.3723 44.004 86.0483 44.444 85.6083 44.724C85.1763 45.004 84.6483 45.144 84.0243 45.144ZM92.3356 45C92.0156 45 91.7476 44.9 91.5316 44.7C91.3236 44.5 91.1916 44.232 91.1356 43.896H91.0636C90.9676 44.304 90.7556 44.616 90.4276 44.832C90.0996 45.04 89.6956 45.144 89.2156 45.144C88.5836 45.144 88.0996 44.976 87.7636 44.64C87.4276 44.304 87.2596 43.86 87.2596 43.308C87.2596 42.644 87.4996 42.152 87.9796 41.832C88.4676 41.504 89.1276 41.34 89.9596 41.34H90.9556V40.944C90.9556 40.64 90.8756 40.4 90.7156 40.224C90.5556 40.04 90.2876 39.948 89.9116 39.948C89.5596 39.948 89.2796 40.024 89.0716 40.176C88.8636 40.328 88.6916 40.5 88.5556 40.692L87.4996 39.756C87.7556 39.38 88.0756 39.088 88.4596 38.88C88.8516 38.664 89.3796 38.556 90.0436 38.556C90.9396 38.556 91.6116 38.752 92.0596 39.144C92.5076 39.536 92.7316 40.108 92.7316 40.86V43.62H93.3196V45H92.3356ZM89.8756 43.908C90.1716 43.908 90.4236 43.844 90.6316 43.716C90.8476 43.588 90.9556 43.38 90.9556 43.092V42.348H90.0916C89.3956 42.348 89.0476 42.584 89.0476 43.056V43.236C89.0476 43.468 89.1196 43.64 89.2636 43.752C89.4076 43.856 89.6116 43.908 89.8756 43.908ZM94.5116 38.7H96.2516V41.232L96.0956 42.696H96.1316L96.8636 41.352L98.6156 38.7H100.2V45H98.4596V42.468L98.6156 41.004H98.5796L97.8476 42.348L96.0956 45H94.5116V38.7ZM97.3676 38.052C96.8396 38.052 96.4116 37.936 96.0836 37.704C95.7556 37.472 95.4996 37.14 95.3156 36.708L95.0636 36.096L96.4436 35.58L96.8276 36.792C96.8756 36.816 96.9516 36.836 97.0556 36.852C97.1596 36.868 97.2636 36.876 97.3676 36.876C97.4716 36.876 97.5756 36.868 97.6796 36.852C97.7836 36.836 97.8596 36.816 97.9076 36.792L98.2916 35.58L99.6716 36.096L99.4196 36.708C99.2356 37.14 98.9796 37.472 98.6516 37.704C98.3236 37.936 97.8956 38.052 97.3676 38.052ZM103.095 40.08H101.271V38.7H106.695V40.08H104.871V45H103.095V40.08ZM112.363 45C112.043 45 111.775 44.9 111.559 44.7C111.351 44.5 111.219 44.232 111.163 43.896H111.091C110.995 44.304 110.783 44.616 110.455 44.832C110.127 45.04 109.723 45.144 109.243 45.144C108.611 45.144 108.127 44.976 107.791 44.64C107.455 44.304 107.287 43.86 107.287 43.308C107.287 42.644 107.527 42.152 108.007 41.832C108.495 41.504 109.155 41.34 109.987 41.34H110.983V40.944C110.983 40.64 110.903 40.4 110.743 40.224C110.583 40.04 110.315 39.948 109.939 39.948C109.587 39.948 109.307 40.024 109.099 40.176C108.891 40.328 108.719 40.5 108.583 40.692L107.527 39.756C107.783 39.38 108.103 39.088 108.487 38.88C108.879 38.664 109.407 38.556 110.071 38.556C110.967 38.556 111.639 38.752 112.087 39.144C112.535 39.536 112.759 40.108 112.759 40.86V43.62H113.347V45H112.363ZM109.903 43.908C110.199 43.908 110.451 43.844 110.659 43.716C110.875 43.588 110.983 43.38 110.983 43.092V42.348H110.119C109.423 42.348 109.075 42.584 109.075 43.056V43.236C109.075 43.468 109.147 43.64 109.291 43.752C109.435 43.856 109.639 43.908 109.903 43.908Z" fill="#472402"/>
<path d="M37.4987 29.5415V37.8748L33.332 33.7082" stroke="#472402" stroke-width="3.33" stroke-linecap="round" stroke-linejoin="round"/>
<path d="M37.5 37.8752L41.6667 33.7085" stroke="#472402" stroke-width="3.33" stroke-linecap="round" stroke-linejoin="round"/>
<path d="M29.5766 31.9052C28.7259 31.161 28.0598 30.2292 27.631 29.1833C27.2022 28.1374 27.0224 27.0062 27.1058 25.8789C27.1893 24.7516 27.5336 23.6592 28.1118 22.6879C28.6899 21.7165 29.4859 20.8929 30.437 20.282C31.388 19.6712 32.4681 19.2898 33.5919 19.1679C34.7157 19.0461 35.8524 19.1873 36.9122 19.5802C37.9721 19.9731 38.9261 20.6071 39.6989 21.432C40.4717 22.2569 41.0422 23.2502 41.3652 24.3334H43.2298C44.2423 24.3332 45.2277 24.661 46.0385 25.2676C46.8492 25.8742 47.4418 26.727 47.7274 27.6985C48.0131 28.6699 47.9765 29.7077 47.6232 30.6566C47.2698 31.6055 46.6187 32.4145 45.7673 32.9625" stroke="#472402" stroke-width="3.33" stroke-linecap="round" stroke-linejoin="round"/>
</svg>
