<svg width="208" height="56" viewBox="0 0 208 56" fill="none" xmlns="http://www.w3.org/2000/svg">
<rect width="208" height="56" rx="16" fill="#FBB36A"/>
<path d="M70.206 13.04H75.466C76.386 13.04 77.226 13.1867 77.986 13.48C78.746 13.7733 79.3927 14.2133 79.926 14.8C80.4593 15.3733 80.8727 16.1 81.166 16.98C81.4593 17.8467 81.606 18.86 81.606 20.02C81.606 21.18 81.4593 22.2 81.166 23.08C80.8727 23.9467 80.4593 24.6733 79.926 25.26C79.3927 25.8333 78.746 26.2667 77.986 26.56C77.226 26.8533 76.386 27 75.466 27H70.206V13.04ZM75.466 24.3C76.3727 24.3 77.086 24.0467 77.606 23.54C78.126 23.0333 78.386 22.22 78.386 21.1V18.94C78.386 17.82 78.126 17.0067 77.606 16.5C77.086 15.9933 76.3727 15.74 75.466 15.74H73.246V24.3H75.466ZM88.2513 27.24C87.478 27.24 86.7847 27.1133 86.1713 26.86C85.5713 26.6067 85.058 26.24 84.6313 25.76C84.218 25.28 83.898 24.7 83.6713 24.02C83.4447 23.34 83.3313 22.58 83.3313 21.74C83.3313 20.9 83.4447 20.14 83.6713 19.46C83.898 18.78 84.218 18.2067 84.6313 17.74C85.058 17.26 85.5713 16.8933 86.1713 16.64C86.7847 16.3867 87.478 16.26 88.2513 16.26C89.0247 16.26 89.7113 16.3867 90.3113 16.64C90.9247 16.8933 91.438 17.26 91.8513 17.74C92.278 18.2067 92.6047 18.78 92.8313 19.46C93.058 20.14 93.1713 20.9 93.1713 21.74C93.1713 22.58 93.058 23.34 92.8313 24.02C92.6047 24.7 92.278 25.28 91.8513 25.76C91.438 26.24 90.9247 26.6067 90.3113 26.86C89.7113 27.1133 89.0247 27.24 88.2513 27.24ZM88.2513 24.9C88.838 24.9 89.2913 24.72 89.6113 24.36C89.9313 24 90.0913 23.4867 90.0913 22.82V20.68C90.0913 20.0133 89.9313 19.5 89.6113 19.14C89.2913 18.78 88.838 18.6 88.2513 18.6C87.6647 18.6 87.2113 18.78 86.8913 19.14C86.5713 19.5 86.4113 20.0133 86.4113 20.68V22.82C86.4113 23.4867 86.5713 24 86.8913 24.36C87.2113 24.72 87.6647 24.9 88.2513 24.9ZM94.0851 16.5H96.9451L97.9651 20.74L98.6851 23.94H98.7651L99.6051 20.74L100.805 16.5H103.505L104.725 20.74L105.585 23.94H105.665L106.385 20.74L107.405 16.5H110.145L107.245 27H104.145L102.865 22.56L102.125 19.84H102.065L101.345 22.56L100.065 27H97.0251L94.0851 16.5ZM111.901 27V16.5H114.861V18.28H114.981C115.168 17.7333 115.495 17.26 115.961 16.86C116.428 16.46 117.075 16.26 117.901 16.26C118.981 16.26 119.795 16.62 120.341 17.34C120.901 18.06 121.181 19.0867 121.181 20.42V27H118.221V20.66C118.221 19.98 118.115 19.48 117.901 19.16C117.688 18.8267 117.308 18.66 116.761 18.66C116.521 18.66 116.288 18.6933 116.061 18.76C115.835 18.8133 115.628 18.9067 115.441 19.04C115.268 19.1733 115.128 19.34 115.021 19.54C114.915 19.7267 114.861 19.9467 114.861 20.2V27H111.901ZM126.756 27C125.742 27 124.996 26.7533 124.516 26.26C124.049 25.7667 123.816 25.0533 123.816 24.12V12.2H126.776V24.7H128.096V27H126.756ZM134.13 27.24C133.357 27.24 132.664 27.1133 132.05 26.86C131.45 26.6067 130.937 26.24 130.51 25.76C130.097 25.28 129.777 24.7 129.55 24.02C129.324 23.34 129.21 22.58 129.21 21.74C129.21 20.9 129.324 20.14 129.55 19.46C129.777 18.78 130.097 18.2067 130.51 17.74C130.937 17.26 131.45 16.8933 132.05 16.64C132.664 16.3867 133.357 16.26 134.13 16.26C134.904 16.26 135.59 16.3867 136.19 16.64C136.804 16.8933 137.317 17.26 137.73 17.74C138.157 18.2067 138.484 18.78 138.71 19.46C138.937 20.14 139.05 20.9 139.05 21.74C139.05 22.58 138.937 23.34 138.71 24.02C138.484 24.7 138.157 25.28 137.73 25.76C137.317 26.24 136.804 26.6067 136.19 26.86C135.59 27.1133 134.904 27.24 134.13 27.24ZM134.13 24.9C134.717 24.9 135.17 24.72 135.49 24.36C135.81 24 135.97 23.4867 135.97 22.82V20.68C135.97 20.0133 135.81 19.5 135.49 19.14C135.17 18.78 134.717 18.6 134.13 18.6C133.544 18.6 133.09 18.78 132.77 19.14C132.45 19.5 132.29 20.0133 132.29 20.68V22.82C132.29 23.4867 132.45 24 132.77 24.36C133.09 24.72 133.544 24.9 134.13 24.9ZM148.919 27C148.386 27 147.939 26.8333 147.579 26.5C147.233 26.1667 147.013 25.72 146.919 25.16H146.799C146.639 25.84 146.286 26.36 145.739 26.72C145.193 27.0667 144.519 27.24 143.719 27.24C142.666 27.24 141.859 26.96 141.299 26.4C140.739 25.84 140.459 25.1 140.459 24.18C140.459 23.0733 140.859 22.2533 141.659 21.72C142.473 21.1733 143.573 20.9 144.959 20.9H146.619V20.24C146.619 19.7333 146.486 19.3333 146.219 19.04C145.953 18.7333 145.506 18.58 144.879 18.58C144.293 18.58 143.826 18.7067 143.479 18.96C143.133 19.2133 142.846 19.5 142.619 19.82L140.859 18.26C141.286 17.6333 141.819 17.1467 142.459 16.8C143.113 16.44 143.993 16.26 145.099 16.26C146.593 16.26 147.713 16.5867 148.459 17.24C149.206 17.8933 149.579 18.8467 149.579 20.1V24.7H150.559V27H148.919ZM144.819 25.18C145.313 25.18 145.733 25.0733 146.079 24.86C146.439 24.6467 146.619 24.3 146.619 23.82V22.58H145.179C144.019 22.58 143.439 22.9733 143.439 23.76V24.06C143.439 24.4467 143.559 24.7333 143.799 24.92C144.039 25.0933 144.379 25.18 144.819 25.18ZM158.986 25.24H158.886C158.806 25.52 158.679 25.7867 158.506 26.04C158.333 26.28 158.119 26.4933 157.866 26.68C157.626 26.8533 157.346 26.9867 157.026 27.08C156.719 27.1867 156.399 27.24 156.066 27.24C154.733 27.24 153.726 26.7733 153.046 25.84C152.366 24.8933 152.026 23.5267 152.026 21.74C152.026 19.9533 152.366 18.5933 153.046 17.66C153.726 16.7267 154.733 16.26 156.066 16.26C156.746 16.26 157.346 16.4467 157.866 16.82C158.399 17.1933 158.739 17.6733 158.886 18.26H158.986V12.2H161.946V27H158.986V25.24ZM157.046 24.84C157.606 24.84 158.066 24.7067 158.426 24.44C158.799 24.16 158.986 23.78 158.986 23.3V20.2C158.986 19.72 158.799 19.3467 158.426 19.08C158.066 18.8 157.606 18.66 157.046 18.66C156.486 18.66 156.019 18.86 155.646 19.26C155.286 19.6467 155.106 20.1733 155.106 20.84V22.66C155.106 23.3267 155.286 23.86 155.646 24.26C156.019 24.6467 156.486 24.84 157.046 24.84Z" fill="#472402"/>
<path opacity="0.8" d="M76.084 45L75.484 43.008H72.688L72.088 45H70.24L73 36.624H75.256L77.98 45H76.084ZM74.104 38.28H74.044L73.12 41.46H75.04L74.104 38.28ZM80.8068 45C80.1988 45 79.7508 44.852 79.4628 44.556C79.1828 44.26 79.0428 43.832 79.0428 43.272V36.12H80.8188V43.62H81.6108V45H80.8068ZM84.8251 45C84.2091 45 83.7411 44.844 83.4211 44.532C83.1091 44.22 82.9531 43.764 82.9531 43.164V40.08H82.0651V38.7H82.5091C82.7491 38.7 82.9131 38.644 83.0011 38.532C83.0891 38.412 83.1331 38.244 83.1331 38.028V36.996H84.7291V38.7H85.9771V40.08H84.7291V43.62H85.8811V45H84.8251ZM89.7919 45.144C89.3119 45.144 88.8839 45.068 88.5079 44.916C88.1319 44.756 87.8119 44.536 87.5479 44.256C87.2919 43.968 87.0959 43.62 86.9599 43.212C86.8319 42.804 86.7679 42.348 86.7679 41.844C86.7679 41.348 86.8319 40.9 86.9599 40.5C87.0879 40.092 87.2759 39.744 87.5239 39.456C87.7799 39.168 88.0919 38.948 88.4599 38.796C88.8279 38.636 89.2479 38.556 89.7199 38.556C90.2399 38.556 90.6839 38.644 91.0519 38.82C91.4279 38.996 91.7319 39.232 91.9639 39.528C92.2039 39.824 92.3759 40.168 92.4799 40.56C92.5919 40.944 92.6479 41.348 92.6479 41.772V42.3H88.6039V42.396C88.6039 42.812 88.7159 43.144 88.9399 43.392C89.1639 43.632 89.5159 43.752 89.9959 43.752C90.3639 43.752 90.6639 43.68 90.8959 43.536C91.1279 43.384 91.3439 43.204 91.5439 42.996L92.4319 44.1C92.1519 44.428 91.7839 44.684 91.3279 44.868C90.8799 45.052 90.3679 45.144 89.7919 45.144ZM89.7559 39.864C89.3959 39.864 89.1119 39.984 88.9039 40.224C88.7039 40.456 88.6039 40.768 88.6039 41.16V41.256H90.8119V41.148C90.8119 40.764 90.7239 40.456 90.5479 40.224C90.3799 39.984 90.1159 39.864 89.7559 39.864ZM93.9022 45V38.7H95.6782V40.068H95.7382C95.7702 39.892 95.8262 39.724 95.9062 39.564C95.9862 39.396 96.0902 39.248 96.2182 39.12C96.3542 38.992 96.5142 38.892 96.6982 38.82C96.8822 38.74 97.0982 38.7 97.3462 38.7H97.6582V40.356H97.2142C96.6942 40.356 96.3062 40.424 96.0502 40.56C95.8022 40.696 95.6782 40.948 95.6782 41.316V45H93.9022ZM98.7538 45V38.7H100.53V39.768H100.602C100.714 39.44 100.91 39.156 101.19 38.916C101.47 38.676 101.858 38.556 102.354 38.556C103.002 38.556 103.49 38.772 103.818 39.204C104.154 39.636 104.322 40.252 104.322 41.052V45H102.546V41.196C102.546 40.788 102.482 40.488 102.354 40.296C102.226 40.096 101.998 39.996 101.67 39.996C101.526 39.996 101.386 40.016 101.25 40.056C101.114 40.088 100.99 40.144 100.878 40.224C100.774 40.304 100.69 40.404 100.626 40.524C100.562 40.636 100.53 40.768 100.53 40.92V45H98.7538ZM110.558 45C110.238 45 109.97 44.9 109.754 44.7C109.546 44.5 109.414 44.232 109.358 43.896H109.286C109.19 44.304 108.978 44.616 108.65 44.832C108.322 45.04 107.918 45.144 107.438 45.144C106.806 45.144 106.322 44.976 105.986 44.64C105.65 44.304 105.482 43.86 105.482 43.308C105.482 42.644 105.722 42.152 106.202 41.832C106.69 41.504 107.35 41.34 108.182 41.34H109.178V40.944C109.178 40.64 109.098 40.4 108.938 40.224C108.778 40.04 108.51 39.948 108.134 39.948C107.782 39.948 107.502 40.024 107.294 40.176C107.086 40.328 106.914 40.5 106.778 40.692L105.722 39.756C105.978 39.38 106.298 39.088 106.682 38.88C107.074 38.664 107.602 38.556 108.266 38.556C109.162 38.556 109.834 38.752 110.282 39.144C110.73 39.536 110.954 40.108 110.954 40.86V43.62H111.542V45H110.558ZM108.098 43.908C108.394 43.908 108.646 43.844 108.854 43.716C109.07 43.588 109.178 43.38 109.178 43.092V42.348H108.314C107.618 42.348 107.27 42.584 107.27 43.056V43.236C107.27 43.468 107.342 43.64 107.486 43.752C107.63 43.856 107.834 43.908 108.098 43.908ZM114.872 45C114.256 45 113.788 44.844 113.468 44.532C113.156 44.22 113 43.764 113 43.164V40.08H112.112V38.7H112.556C112.796 38.7 112.96 38.644 113.048 38.532C113.136 38.412 113.18 38.244 113.18 38.028V36.996H114.776V38.7H116.024V40.08H114.776V43.62H115.928V45H114.872ZM118.146 38.028C117.786 38.028 117.522 37.948 117.354 37.788C117.194 37.62 117.114 37.408 117.114 37.152V36.888C117.114 36.632 117.194 36.424 117.354 36.264C117.522 36.096 117.786 36.012 118.146 36.012C118.506 36.012 118.766 36.096 118.926 36.264C119.094 36.424 119.178 36.632 119.178 36.888V37.152C119.178 37.408 119.094 37.62 118.926 37.788C118.766 37.948 118.506 38.028 118.146 38.028ZM117.258 38.7H119.034V45H117.258V38.7ZM122.035 45L119.971 38.7H121.723L122.503 41.244L123.091 43.524H123.187L123.775 41.244L124.531 38.7H126.211L124.147 45H122.035ZM129.683 45.144C129.203 45.144 128.775 45.068 128.399 44.916C128.023 44.756 127.703 44.536 127.439 44.256C127.183 43.968 126.987 43.62 126.851 43.212C126.723 42.804 126.659 42.348 126.659 41.844C126.659 41.348 126.723 40.9 126.851 40.5C126.979 40.092 127.167 39.744 127.415 39.456C127.671 39.168 127.983 38.948 128.351 38.796C128.719 38.636 129.139 38.556 129.611 38.556C130.131 38.556 130.575 38.644 130.943 38.82C131.319 38.996 131.623 39.232 131.855 39.528C132.095 39.824 132.267 40.168 132.371 40.56C132.483 40.944 132.539 41.348 132.539 41.772V42.3H128.495V42.396C128.495 42.812 128.607 43.144 128.831 43.392C129.055 43.632 129.407 43.752 129.887 43.752C130.255 43.752 130.555 43.68 130.787 43.536C131.019 43.384 131.235 43.204 131.435 42.996L132.323 44.1C132.043 44.428 131.675 44.684 131.219 44.868C130.771 45.052 130.259 45.144 129.683 45.144ZM129.647 39.864C129.287 39.864 129.003 39.984 128.795 40.224C128.595 40.456 128.495 40.768 128.495 41.16V41.256H130.703V41.148C130.703 40.764 130.615 40.456 130.439 40.224C130.271 39.984 130.007 39.864 129.647 39.864ZM138.393 45C137.785 45 137.337 44.852 137.049 44.556C136.769 44.26 136.629 43.832 136.629 43.272V36.12H138.405V43.62H139.197V45H138.393ZM141.15 38.028C140.79 38.028 140.526 37.948 140.358 37.788C140.198 37.62 140.118 37.408 140.118 37.152V36.888C140.118 36.632 140.198 36.424 140.358 36.264C140.526 36.096 140.79 36.012 141.15 36.012C141.51 36.012 141.77 36.096 141.93 36.264C142.098 36.424 142.182 36.632 142.182 36.888V37.152C142.182 37.408 142.098 37.62 141.93 37.788C141.77 37.948 141.51 38.028 141.15 38.028ZM140.262 38.7H142.038V45H140.262V38.7ZM143.695 45V38.7H145.471V39.768H145.543C145.655 39.44 145.851 39.156 146.131 38.916C146.411 38.676 146.799 38.556 147.295 38.556C147.943 38.556 148.431 38.772 148.759 39.204C149.095 39.636 149.263 40.252 149.263 41.052V45H147.487V41.196C147.487 40.788 147.423 40.488 147.295 40.296C147.167 40.096 146.939 39.996 146.611 39.996C146.467 39.996 146.327 40.016 146.191 40.056C146.055 40.088 145.931 40.144 145.819 40.224C145.715 40.304 145.631 40.404 145.567 40.524C145.503 40.636 145.471 40.768 145.471 40.92V45H143.695ZM150.844 36.12H152.62V41.364H152.692L153.472 40.2L154.732 38.7H156.7L154.6 41.112L156.94 45H154.828L153.412 42.336L152.62 43.224V45H150.844V36.12Z" fill="#472402"/>
<path d="M40.625 19.125H46.875V25.375" stroke="#472402" stroke-width="3.33" stroke-linecap="round" stroke-linejoin="round"/>
<path d="M35.418 30.5833L46.8763 19.125" stroke="#472402" stroke-width="3.33" stroke-linecap="round" stroke-linejoin="round"/>
<path d="M43.75 29.5417V35.7917C43.75 36.3442 43.5305 36.8741 43.1398 37.2648C42.7491 37.6555 42.2192 37.875 41.6667 37.875H30.2083C29.6558 37.875 29.1259 37.6555 28.7352 37.2648C28.3445 36.8741 28.125 36.3442 28.125 35.7917V24.3333C28.125 23.7808 28.3445 23.2509 28.7352 22.8602C29.1259 22.4695 29.6558 22.25 30.2083 22.25H36.4583" stroke="#472402" stroke-width="3.33" stroke-linecap="round" stroke-linejoin="round"/>
</svg>
